<?xml version="1.0" encoding="UTF-8"?>
<svg id="Capa_1" xmlns="http://www.w3.org/2000/svg" version="1.1" viewBox="0 0 329.81 98.41">
  <!-- Generator: Adobe Illustrator 29.5.1, SVG Export Plug-In . SVG Version: 2.1.0 Build 141)  -->
  <defs>
    <style>
      .st0 {
        fill: #000456;
      }
    </style>
  </defs>
  <g id="logo-kactus-hcm-white">
    <path id="Trazado_165" class="st0" d="M91.79,95.42c-.52-.03-1.04-.09-1.56-.18-.22-.06-.63-.15-.91-.2-.55-.09-1.08-.22-1.61-.4-.11-.05-.42-.17-.7-.26-.89-.3-1.74-.69-2.55-1.18-.02-.05-.1-.08-.17-.08-.8-.58-1.49-1.29-2.05-2.1-.2-.34-.38-.69-.52-1.06-.11-.28-.23-.6-.28-.72-.28-.89-.47-1.81-.57-2.73-.31-2.47-.15-8.68.25-9.79.06-.2.12-.4.15-.6.32-1.15.97-2.19,1.87-2.98,1.15-.77,2.38-1.41,3.66-1.91.21-.06.41-.14.6-.24.24-.11.5-.21.75-.29.36-.13.95-.34,1.31-.46.69-.25,2.05-.69,3.32-1.06,1.12-.33,2.33-.72,2.56-.8.11-.04.54-.18.95-.3,1.39-.42,3.47-1.12,3.79-1.26.14-.07.3-.13.46-.15.08,0,.16-.03.23-.08.23-.12.46-.22.7-.31,1.81-.69,2.15-1.09,2.38-2.81.22-2.04.13-4.1-.27-6.12-.19-.64-.62-1.19-1.2-1.52-1.19-.5-2.55-.38-3.64.32-.46.44-.63,2.24-.63,6.81v3.19h-17.43l.05-2.64c-.08-2.25.17-4.5.75-6.67.37-1.55,1.2-2.96,2.39-4.02,1.41-1.4,1.82-1.67,4.48-3.03.37-.21.76-.39,1.16-.54.12-.03.24-.07.35-.13.33-.14.66-.27,1.01-.36l.95-.31c.4-.12.8-.22,1.21-.29.55-.12,1.21-.26,1.46-.31.52-.11,1.85-.28,3.22-.4,1.25-.12,6.99-.12,8.35,0,4.16.35,7.24,1.08,9.41,2.22.5.23.99.5,1.46.8.15.11.3.2.46.29.16.09.31.19.46.3.03.03.22.17.42.33.63.53,1.22,1.11,1.77,1.72.39.53.75,1.09,1.06,1.67.69,1.48.92,3.06,1.28,8.6.06,1,.1,7.27.1,16.48v14.86h-18.01v-2.03s-.01-2.04-.01-2.04l-.27.34c-.67.81-1.42,1.54-2.24,2.21-1.05.72-2.21,1.28-3.42,1.67-1.02.31-2.08.5-3.15.57-1.19.11-2.4.11-3.59-.01h0ZM102.71,87.02c.75-.3,1.01-.78,1.17-2.15.15-1.21.24-12.28.1-12.28-.77.39-1.51.82-2.22,1.3-.2.17-.42.32-.64.46-.89.59-1.63,1.36-2.19,2.27-.47,1.05-.71,2.19-.7,3.34-.15,1.9-.05,3.81.29,5.69.25.82.95,1.42,1.79,1.55.81.1,1.63.04,2.41-.17h0Z"/>
    <path id="Trazado_166" class="st0" d="M146.12,95.43c-.92-.05-1.97-.13-2.36-.19s-1.02-.16-1.41-.21c-1.62-.24-3.21-.65-4.74-1.24-.06-.05-.14-.07-.21-.07-.99-.41-1.96-.89-2.89-1.43-1.25-.84-2.36-1.87-3.29-3.05-.12-.19-.26-.38-.41-.55-.47-.81-.88-1.65-1.24-2.52-.04-.16-.09-.31-.15-.46-.36-1.18-.62-2.39-.77-3.62-.27-1.99-.33-4.13-.33-11.52,0-9.48.09-10.95.81-13.53.21-.91.57-1.78,1.08-2.56.03-.03.18-.23.33-.46,1.08-1.57,3.82-3.51,6.53-4.63.35-.14.73-.3.84-.34.97-.36,1.97-.66,2.97-.92,1.44-.33,2.9-.56,4.38-.7,1.23-.11,6.12-.12,7.3,0,1.26.12,2.5.29,3.07.41,1.01.22,2.22.5,2.52.6.92.28,1.63.52,1.81.6.11.05.43.18.72.29,1.48.64,2.89,1.43,4.22,2.35,1.34,1.03,2.45,2.33,3.25,3.82.55,1.21.94,2.49,1.17,3.8.04.25.11.63.16.86.12.51.4,3.91.4,4.86v.72h-17.49l-.05-3.94c.07-1.47,0-2.95-.19-4.41-.22-.63-.4-1.01-.49-1.01-.04,0-.1-.08-.13-.18-.14-.44-1.49-.78-2.56-.63-1.38.19-1.73.69-1.98,2.77-.21,1.81-.21,23.95.01,25.39.05.78.29,1.54.69,2.21.49.88,1.47,1.38,2.47,1.27.67.07,1.35-.11,1.89-.51,1.06-.78,1.32-2.44,1.33-8.3v-2.9h16.53l-.06,1.69c-.21,5.43-.46,7.29-1.19,8.85-.34.71-.74,1.4-1.2,2.04-.07.06-.12.13-.16.21-1.07,1.44-2.35,2.69-3.82,3.72-1.49.98-3.12,1.75-4.83,2.27-.27.08-.66.19-.86.24-1.47.38-2.97.65-4.48.8-1.38.14-5.33.19-7.19.1h0Z"/>
    <path id="Trazado_167" class="st0" d="M214.46,95.42c-1.51-.07-3-.38-4.42-.91-.16-.08-.33-.14-.5-.19-.69-.29-1.35-.65-1.98-1.06-1.95-1.38-3.24-3.5-3.57-5.86-.23-1.25-.31-6.69-.31-22.88v-16.48h18.5l.04,18.19c.04,15.98.07,18.28.2,18.99.09.44.16.86.16.92.01.2.56.72.97.89,1.01.27,2.08.26,3.08-.03.54-.19.92-.68.97-1.25.14-.57.17-2.69.2-19.17l.04-18.55h18.61v46.69h-18.92v-.22c.02-.28.05-.56.09-.83.05-.33.12-1.09.16-1.69l.06-1.08-.83.83c-.4.41-.83.79-1.29,1.14-.17.11-.34.23-.5.35-.47.33-.98.62-1.51.86-.25.1-.68.28-.95.4-2.65.94-5.49,1.26-8.28.95h0Z"/>
    <path id="Trazado_168" class="st0" d="M269.94,95.43c-.94-.05-2.02-.13-2.41-.19s-1.01-.15-1.41-.21c-.86-.09-1.71-.25-2.55-.46-.32-.09-.83-.22-1.12-.29-.58-.15-2.03-.6-2.36-.75-.11-.05-.6-.26-1.11-.46-1.16-.5-2.24-1.15-3.24-1.92-.23-.21-.53-.47-.66-.58-.91-.96-1.6-2.11-2.02-3.37-.69-2.34-.99-4.78-.88-7.21v-1.64h16.41v1.95c.01,3.72.24,5.45.83,6.16.49.6,1.04.8,2.35.8,2.75.01,3.41-.8,3.39-4.11-.01-2.39-.35-3.53-1.22-4.08-1.46-.81-2.96-1.55-4.5-2.21-.27-.12-.78-.35-1.12-.51-.22-.11-.44-.21-.68-.29-.24-.09-.47-.19-.7-.3-.36-.16-.69-.3-.72-.3-.27-.1-.53-.21-.78-.34-.4-.19-1.19-.53-1.74-.77-4.31-1.81-7.71-3.76-9.25-5.28-1.53-1.68-2.47-3.81-2.67-6.07-.17-2.02-.1-4.05.21-6.06.18-1.07.52-2.1,1-3.07.63-1.28,1.61-2.37,2.82-3.13.85-.54,1.74-1.01,2.67-1.4.21-.07.41-.16.6-.26.15-.06.3-.11.46-.14.17-.04.34-.09.5-.16.19-.08.39-.14.6-.19.25-.06.8-.19,1.21-.3,2.98-.71,6.05-1.02,9.11-.91,3.02-.11,6.05.16,9.01.81,2.66.53,5.17,1.6,7.4,3.14.77.65,1.49,1.36,2.15,2.12.4.54.71,1.14.92,1.78,0,.14.04.27.1.4.28,1.81.41,3.63.4,5.46v1.87h-16.41v-1.6c0-.88-.07-2.24-.15-3-.16-1.6-.36-2.11-.94-2.46-1.17-.44-2.46-.44-3.62,0-.54.31-.94.81-1.15,1.4-.24,1.24-.24,2.51-.02,3.76.15.67.74,1.8.92,1.8.17.1.33.21.47.35.31.32.67.58,1.07.77.17.09.33.19.49.29.07.07,1.21.63,1.96.95.33.15.75.33.91.4s.72.3,1.21.5,1.04.43,1.23.51c.14.07.3.12.46.14.08,0,.16.03.23.08.37.18.76.34,1.16.47.39.13.78.29,1.16.47.07.05.16.08.25.08.14.02.28.07.4.13.25.12.5.22.75.31.28.1.78.31,1.11.46s.78.35,1.01.46c1.19.52,2.34,1.12,3.45,1.79.02.04.1.07.17.07.1.01.2.06.27.13.17.14.34.27.53.37.21.13.41.27.6.42.11.09.43.35.7.57,1.16,1.03,2.02,2.36,2.5,3.83.44,1.33.62,2.73.54,4.13.12,1.94-.04,3.89-.48,5.78-.46,2.05-1.6,3.89-3.22,5.23-.78.6-1.63,1.11-2.52,1.54-1.29.62-2.63,1.1-4.02,1.45-1.54.36-3.1.63-4.68.78-1.38.14-5.43.19-7.35.1h0Z"/>
    <path id="Trazado_169" class="st0" d="M31.71,66.3v-28.43h19.32v11s.01,10.99.01,10.99l.27-.72c.09-.28.21-.54.35-.8.05-.07.08-.15.07-.23.02-.15.07-.29.14-.42.07-.15.33-.78.57-1.41s.5-1.33.6-1.55.25-.63.35-.91c.07-.21.16-.41.27-.6.05-.07.08-.15.08-.23.04-.19.1-.38.19-.55.1-.23.31-.77.46-1.18s.36-.95.46-1.18c.09-.17.15-.36.19-.55,0-.09.04-.17.09-.23.21-.46.4-.93.57-1.41.27-.72.52-1.35.57-1.41.05-.07.08-.16.08-.25.02-.14.07-.28.13-.4.14-.29.26-.6.37-.91.09-.26.19-.51.3-.75.15-.33.28-.67.4-1.01.18-.49.41-1.09.5-1.31s.44-1.08.75-1.91.63-1.63.69-1.79l.12-.27h9.05c8.56,0,9.04.01,8.96.18-.06.15-.12.31-.17.46-.06.16-.26.6-.44.98-.13.24-.24.49-.34.75-.15.41-.31.81-.5,1.2-.05.11-.18.43-.3.7-.57,1.35-.61,1.44-1,2.3-.17.38-.31.72-.31.75-.04.14-.1.28-.17.41-.66,1.48-.85,1.9-1.14,2.59-.12.28-.25.6-.3.7s-.18.43-.3.7-.25.6-.3.7-.18.43-.3.7-.25.6-.3.7-.18.43-.3.7-.25.6-.3.7c-.15.34-.56,1.29-.8,1.81-.12.28-.26.6-.31.7s-.18.43-.3.7-.28.64-.37.83c-.06.12-.11.24-.14.36-.09.24-.19.47-.3.7-.16.36-.3.69-.3.7s-.14.36-.31.75-.34.78-.4.89-.19.46-.33.75-.4.92-.6,1.37l-.35.81.43,1.14c.24.63.5,1.28.58,1.46.08.15.13.31.16.47,0,.09.03.17.08.24.24.5.45,1.02.63,1.55.29.8.56,1.51.6,1.56.11.25.21.5.3.75.13.36.3.77.37.91.07.13.12.27.13.41,0,.09.03.17.08.25.17.32.31.66.42,1,.11.34.25.68.41,1,.05.07.09.16.09.25.04.2.11.39.2.57.09.18.16.37.2.57,0,.09.03.17.08.25.19.37.34.75.47,1.15.13.39.29.78.47,1.15.05.07.08.16.08.25.02.14.06.29.13.41.14.29.26.6.37.91.13.36.3.77.37.91.07.13.12.27.13.41,0,.09.03.17.08.25.17.32.31.66.42,1,.11.35.25.68.42,1,.05.07.08.16.08.25.04.2.11.39.2.57.09.18.16.37.2.57,0,.09.03.17.08.25.17.32.31.66.42,1,.18.5.4,1.09.5,1.31s.32.81.5,1.31.37.95.4,1.01.33.8.66,1.66.66,1.75.77,1.98c.08.16.15.33.19.51.03.13.08.26.15.38.08.15.13.31.15.47,0,.16-.54.17-9.96.17s-9.96-.01-9.96-.17c-.15-.61-.33-1.2-.53-1.79-.48-1.44-1-3.06-1.45-4.53-.09-.27-.19-.57-.23-.66-.06-.16-.12-.33-.15-.5-.04-.17-.09-.34-.16-.5-.04-.08-.24-.69-.44-1.36s-.46-1.43-.55-1.71-.31-.94-.48-1.46c-.42-1.35-1.31-4.14-1.58-4.98-.12-.38-.4-1.25-.6-1.91s-.4-1.28-.44-1.36c-.1-.25-.18-.5-.25-.75-.11-.33-.22-.69-.27-.8s-.19-.57-.32-1.01l-.25-.8v12.15s-.02,12.15-.02,12.15h-19.33v-28.4h0Z"/>
    <path id="Trazado_170" class="st0" d="M188.03,94.57c-3.36-.17-5.05-.4-5.96-.8-.15-.07-.3-.12-.46-.14-.08,0-.16-.03-.21-.09-.09-.08-.19-.13-.31-.15-.72-.34-1.41-.75-2.06-1.22-.71-.58-1.31-1.28-1.78-2.07-.37-.66-.59-1.4-.64-2.15-.23-1.98-.28-4.76-.28-17.78v-13.56h-4.03v-7.34h4.02v-7.34h18.51v7.34h5.13v7.34l-2.53.02-2.55.03v13.48c0,13.91.03,15.19.4,16.13.07.21.23.39.43.49,1.29.28,2.61.43,3.93.43h1.03v7.55h-5.1c-2.82-.02-6.2-.09-7.53-.16h0Z"/>
    <path id="Trazado_175" class="st0" d="M297.13,49.39c.04-.09.12-.16.21-.19.16-.06.3-.16.42-.27.14-.13.6-.5,1.01-.83,1.72-1.4,3.3-2.96,4.71-4.67.09-.15.2-.28.31-.41.53-.72,1.02-1.48,1.45-2.27,1.61-3.12,1.55-5.89-.19-8.5-.24-.37-.55-.78-.69-.95-.52-.62-1.09-1.2-1.71-1.72-.28-.22-.52-.42-.55-.46s-.21-.17-.4-.3c-.16-.11-.31-.23-.46-.35-.15-.11-.31-.21-.47-.3-.2-.11-.37-.23-.37-.27,0-.05-.04-.08-.09-.08,0,0,0,0,0,0-.2-.08-.39-.18-.57-.31-1.41-.83-2.87-1.56-4.38-2.19-.69-.29-1.39-.6-1.56-.66-1.14-.49-5.29-1.85-7.4-2.41-.75-.2-1.49-.4-1.66-.46s-.7-.19-1.21-.3-1.07-.25-1.26-.31c-.46-.12-2.07-.48-2.97-.67-.38-.08-1-.21-1.36-.29-.78-.16-2.41-.47-4.78-.89-.86-.15-1.37-.23-3.74-.61-1.96-.3-4.48-.66-6.42-.91-.66-.08-1.52-.19-1.91-.25-7.86-1.08-23.46-2.21-35.62-2.61-1.77-.05-4.42-.15-5.89-.2-4.14-.17-22.88-.24-29.84-.11-7.81.14-12.99.27-16.3.41-1.44.06-3.77.15-5.18.21-6.48.24-14.24.66-21.83,1.15-5.1.33-12.84.91-15.6,1.16-.58.05-1.87.16-2.87.25-2.5.21-4.84.42-6.74.6-.89.09-2.33.22-3.22.3s-2.27.22-3.1.31-2.13.22-2.94.3c-5.15.52-10.78,1.14-13.08,1.45l-1.91.24c-1.67.2-3.51.43-4.83.6l-2.36.31c-2.58.33-3.66.48-6.72.91-1.66.24-3.02.43-4.14.6-.58.09-1.51.22-2.06.3s-1.28.2-1.61.25-1.04.17-1.56.25c-1.09.16-2.56.4-3.82.6-.47.07-1.29.21-1.81.29s-1.39.23-1.91.31-1.34.23-1.81.3-1.26.21-1.76.3-1.27.23-1.71.3-1.21.21-1.71.3-1.25.22-1.66.3-1.09.2-1.51.28-1.03.21-1.36.27-.95.17-1.36.25-1.12.22-1.56.3-1.12.21-1.51.29-1.09.22-1.56.31c-1.66.33-2.38.47-3.02.6-.36.08-.97.21-1.36.29-1.78.37-3.39.72-3.97.86-.19.05-.69.17-1.11.26s-1.03.22-1.36.3-.92.21-1.31.29-1,.23-1.36.31c-.58.14-1.23.29-2.16.51-.16.04-.28.04-.25.01.06-.07,3.82-1.48,3.94-1.48.17-.05.33-.11.49-.19.23-.12.47-.2.72-.26.15-.03.29-.08.42-.15.14-.07.3-.12.46-.15.17-.04.34-.09.5-.15.08-.05.89-.32,1.81-.61s1.75-.55,1.86-.6.54-.17.95-.29,1.09-.33,1.51-.46c1.63-.5,2.59-.8,4.13-1.24.58-.16,1.39-.4,1.78-.5s1.18-.33,1.71-.47,1.22-.32,1.49-.4.77-.2,1.09-.29.83-.22,1.15-.31.83-.21,1.12-.29.74-.19.95-.25.66-.17.95-.25c2.83-.69,5.14-1.28,5.43-1.36.19-.05.77-.19,1.26-.3s1.07-.25,1.26-.31.55-.14.8-.19.75-.16,1.11-.25.95-.22,1.31-.29.9-.21,1.21-.29.89-.22,1.31-.31,1.03-.23,1.36-.31l1.61-.35c1-.21,1.94-.42,2.72-.6.22-.05.77-.16,1.21-.26s1.08-.22,1.41-.3.86-.18,1.15-.24.88-.17,1.26-.25,1.03-.22,1.41-.3.9-.19,1.15-.25.81-.17,1.26-.26,1.09-.22,1.46-.29,1.04-.21,1.51-.3,1.18-.23,1.56-.31,1.04-.2,1.46-.28c.75-.14,1.83-.35,3.17-.63.39-.08,1.09-.21,1.56-.29s1.2-.22,1.61-.3,1.14-.22,1.61-.3,1.06-.19,1.31-.25.86-.17,1.36-.26,1.25-.22,1.66-.29,1.17-.2,1.66-.29,1.27-.22,1.71-.3c1.84-.34,3.71-.66,5.23-.92.44-.07,1.24-.21,1.76-.3s1.34-.22,1.81-.3c1.48-.24,2.85-.46,3.32-.55.43-.07,1.31-.21,3.42-.55.52-.09,1.41-.23,1.96-.31s1.44-.22,1.96-.3c1.69-.26,2.95-.46,3.93-.6.52-.08,1.43-.21,2.01-.3,1.12-.17,2.41-.36,4.08-.6,2.44-.35,3.35-.48,3.82-.55.28-.04,1.04-.15,1.71-.24s1.71-.23,2.32-.31c1.74-.25,4.91-.66,6.84-.9.66-.08,1.73-.22,2.36-.3s1.75-.22,2.47-.31,1.83-.21,2.47-.29c1.54-.18,3.52-.43,5.16-.6.72-.09,1.69-.2,2.13-.25,1.41-.17,4.05-.46,7.85-.86,8.18-.84,16.57-1.6,23.75-2.12,1.17-.08,2.64-.19,3.27-.24,4.33-.35,14.26-.89,19.93-1.11,1.47-.05,3.93-.15,5.48-.22,3.94-.18,26.89-.18,30.39,0,1.39.07,3.44.17,4.58.23,4.93.22,11.25.69,14.79,1.09.47.05,1.47.16,2.21.25,4.49.5,8.68,1.11,12.53,1.81.5.09,1.15.21,1.46.26s.83.15,1.15.23l1.21.26c1.34.28,4.71,1.09,6.49,1.57.3.09.77.21,1.03.27.19.04.37.11.54.2.07.05.15.08.23.07.59.12,1.16.28,1.72.5.16.06.33.12.5.15.17.04.34.09.5.15.28.12.57.22.86.3.48.13.94.3,1.39.5.12.05.66.26,1.18.46s1.05.4,1.15.46.46.19.75.3c2.9,1.21,5.67,2.7,8.27,4.45.09.07.26.2.38.28.25.17,1.23.92,1.91,1.49,1,.88,1.94,1.83,2.83,2.83.24.29.52.63.63.75.76,1.01,1.43,2.09,2.01,3.22.33,1.06.48,2.17.47,3.28,0,3.43-1.4,6.39-4.63,9.76-1.04,1-2.13,1.94-3.27,2.83-1.96,1.43-4.01,2.74-6.14,3.91-.19.09-.38.19-.55.3-.07.07-3.57,1.8-4.48,2.21-.75.34-.85.38-1.61.7-.27.12-.6.25-.7.3s-.46.19-.75.3-.64.25-.75.3-.75.3-1.41.55-1.3.49-1.41.54c-.4.18-1.92.7-2.21.78-.14.03-.27.08-.4.14-.14.07-.3.12-.46.15-.17.04-.34.09-.5.16-.15.08-1.98.66-2.56.8l-.63.17c-.26.08-.31.08-.26-.04h.04Z"/>
  </g>
</svg>