<svg xmlns="http://www.w3.org/2000/svg" viewBox="0 0 24 24" id="terpel">
  <path fill="#F44336" fill-rule="evenodd" d="M12 0C5.373 0 0 5.373 0 12s5.373 12 12 12 12-5.373 12-12v-.016c-.007 4.628-3.704 8.378-8.264 8.378-4.564 0-8.264-3.757-8.264-8.392s3.7-8.392 8.264-8.392c4.487 0 8.139 3.632 8.261 8.159C23.857 5.232 18.54 0 12 0z" clip-rule="evenodd"></path>
  <path fill="#FF9800" fill-rule="evenodd" d="M15.736 3.578C20.3 3.578 24 7.335 24 11.97s-3.7 8.392-8.264 8.392c-2.935 0-5.513-1.554-6.979-3.897a5.17 5.17 0 1 0 .04-9.053c1.473-2.307 4.03-3.834 6.939-3.834z" clip-rule="evenodd"></path>
  <path fill="#FFD54F" fill-rule="evenodd" d="M14.281 3.71c3.732.033 7.178 3.602 7.178 8.207s-3.131 8.338-6.993 8.338c-2.211-.318-4.379-1.687-5.701-3.786a5.17 5.17 0 1 0 .044-9.064c1.304-2.026 3.391-3.332 5.472-3.695z" clip-rule="evenodd"></path>
</svg>
